<?xml version="1.0" encoding="UTF-8" standalone="no"?>
<!-- Created with Inkscape (http://www.inkscape.org/) -->
<svg
   xmlns:dc="http://purl.org/dc/elements/1.1/"
   xmlns:cc="http://web.resource.org/cc/"
   xmlns:rdf="http://www.w3.org/1999/02/22-rdf-syntax-ns#"
   xmlns:svg="http://www.w3.org/2000/svg"
   xmlns="http://www.w3.org/2000/svg"
   xmlns:sodipodi="http://inkscape.sourceforge.net/DTD/sodipodi-0.dtd"
   xmlns:inkscape="http://www.inkscape.org/namespaces/inkscape"
   width="395pt"
   height="395pt"
   id="svg2"
   sodipodi:version="0.32"
   inkscape:version="0.43"
   sodipodi:docbase="C:\Documents and Settings\Owner\Desktop\SVG"
   sodipodi:docname="Rubiks.svg"
   version="1.0">
  <defs
     id="defs4" />
  <sodipodi:namedview
     id="base"
     pagecolor="#ffffff"
     bordercolor="#666666"
     borderopacity="1.0"
     inkscape:pageopacity="0.0"
     inkscape:pageshadow="2"
     inkscape:zoom="2.2083223"
     inkscape:cx="440.72947"
     inkscape:cy="331.63802"
     inkscape:document-units="px"
     inkscape:current-layer="layer1"
     inkscape:window-width="756"
     inkscape:window-height="543"
     inkscape:window-x="240"
     inkscape:window-y="34" />
  <metadata
     id="metadata7">
    <rdf:RDF>
      <cc:Work
         rdf:about="">
        <dc:format>image/svg+xml</dc:format>
        <dc:type
           rdf:resource="http://purl.org/dc/dcmitype/StillImage" />
      </cc:Work>
    </rdf:RDF>
  </metadata>
  <g
     inkscape:label="Layer 1"
     inkscape:groupmode="layer"
     id="layer1">
    <path
       style="fill:#000000;fill-opacity:1;fill-rule:evenodd;stroke:#000000;stroke-width:1px;stroke-linecap:butt;stroke-linejoin:miter;stroke-opacity:1"
       d="M 11.990545,45.077505 L 260.38696,6.5571731 C 262.75895,7.4930431 286.32421,-1.0997869 308.19537,13.812563 L 482.63944,89.784495 L 445.64594,389.84271 L 171.62014,492.60238 L 19.535835,326.81678 L 4.5099747,72.327665 C 3.9958347,65.080775 0.35907474,44.537215 11.990545,45.077505 z "
       id="path1345"
       sodipodi:nodetypes="ccccccccc" />
    <path
       style="opacity:0.9;fill:#ff0000;fill-opacity:1;fill-rule:evenodd;stroke:none;stroke-width:1.25;stroke-linecap:round;stroke-linejoin:round;stroke-miterlimit:4;stroke-dashoffset:0;stroke-opacity:1"
       d="M 186.18102,160.46972 L 275.71013,139.29255 C 279.71548,138.76199 283.36714,141.55939 283.89769,145.56475 L 277.83806,240.55625 C 278.36862,244.56161 275.57122,248.21326 271.56587,248.74382 L 187.47301,272.39202 C 183.46765,272.92258 179.816,270.12518 179.28544,266.11982 L 179.41462,172.61092 C 178.88406,168.60557 182.17567,161.00028 186.18102,160.46972 z "
       id="rect1350"
       sodipodi:nodetypes="ccccccccc" />
    <path
       style="opacity:0.9;fill:#00ffff;fill-opacity:1;fill-rule:evenodd;stroke:none;stroke-width:1.25000072;stroke-linecap:round;stroke-linejoin:round;stroke-miterlimit:4;stroke-dashoffset:0;stroke-opacity:1"
       d="M 309.85882,138.43651 L 372.16005,125.01654 C 375.84001,122.85896 386.92173,119.63998 388.72326,130.00017 L 381.12663,212.76855 C 381.65719,216.77391 374.9941,224.93552 370.98874,225.46608 L 302.24472,245.32885 C 298.23936,245.8594 293.29915,243.06201 292.76859,239.05666 L 296.49955,156.93254 C 294.77524,146.95841 305.40394,136.71943 309.85882,138.43651 z "
       id="rect1352"
       sodipodi:nodetypes="ccccccccc" />
    <path
       style="opacity:0.9;fill:#ff0000;fill-opacity:1;fill-rule:evenodd;stroke:none;stroke-width:1.25000072;stroke-linecap:round;stroke-linejoin:round;stroke-miterlimit:4;stroke-dashoffset:0;stroke-opacity:1"
       d="M 409.85086,113.29216 L 462.4879,101.80501 C 467.65561,98.368575 478.31946,100.44574 476.64706,109.95849 L 467.05404,180.61752 C 469.03002,196.18626 454.87343,198.33453 450.86808,198.86509 L 406.25369,211.33266 C 391.16674,218.12672 395.22402,204.24774 394.69346,200.24239 L 403.57866,121.47973 C 403.04811,117.47438 405.8455,113.82271 409.85086,113.29216 z "
       id="rect1354"
       sodipodi:nodetypes="ccccccccc" />
    <path
       style="opacity:0.9;fill:#00fe00;fill-opacity:1;fill-rule:evenodd;stroke:none;stroke-width:1.25000072;stroke-linecap:round;stroke-linejoin:round;stroke-miterlimit:4;stroke-dashoffset:0;stroke-opacity:1"
       d="M 193.87988,283.85529 L 257.66239,266.38361 C 261.66774,265.85305 274.98699,260.79139 272.62669,278.28738 L 269.69128,345.62669 C 269.74003,357.82278 258.0964,364.54458 254.09105,365.07514 L 192.90468,385.10598 C 188.89932,385.63654 177.35386,395.55103 175.53473,385.10288 L 173.63525,303.60626 C 173.10469,299.60089 186.02006,284.38584 193.87988,283.85529 z "
       id="rect1356"
       sodipodi:nodetypes="ccccccccc" />
    <path
       style="opacity:0.9;fill:#ffff00;fill-opacity:1;fill-rule:evenodd;stroke:none;stroke-width:1.25000072;stroke-linecap:round;stroke-linejoin:round;stroke-miterlimit:4;stroke-dashoffset:0;stroke-opacity:1"
       d="M 305.41645,249.80519 L 362.4099,233.35661 C 366.41525,232.82606 377.29403,227.91453 373.48832,249.26497 L 367.01778,304.71593 C 367.54833,308.7213 367.64179,323.45454 360.26377,325.91233 L 295.85041,347.55108 C 279.31805,350.49067 283.85713,342.87519 283.32657,338.86983 L 286.08831,265.74883 C 285.55775,261.74348 296.11121,250.33575 305.41645,249.80519 z "
       id="rect1358"
       sodipodi:nodetypes="ccccccccc" />
    <path
       style="opacity:0.9;fill:#00fe00;fill-opacity:1;fill-rule:evenodd;stroke:none;stroke-width:1.25000107;stroke-linecap:round;stroke-linejoin:round;stroke-miterlimit:4;stroke-dashoffset:0;stroke-opacity:1"
       d="M 403.98398,222.34602 L 452.72657,209.24555 C 467.99279,202.44028 462.96069,218.42018 463.49125,222.42554 L 455.89462,275.73636 C 454.42696,284.48268 451.70847,295.89427 439.15709,298.10368 L 393.76958,314.09517 C 375.59008,321.71279 378.62794,312.29888 379.93477,307.83418 L 387.32402,241.94096 C 387.12791,240.67158 386.3181,223.4176 403.98398,222.34602 z "
       id="rect1360"
       sodipodi:nodetypes="ccccccccc" />
    <path
       style="opacity:0.9;fill:#ff0000;fill-opacity:1;fill-rule:evenodd;stroke:none;stroke-width:1.25000072;stroke-linecap:round;stroke-linejoin:round;stroke-miterlimit:4;stroke-dashoffset:0;stroke-opacity:1"
       d="M 188.19144,399.29342 L 257.53933,374.28989 C 269.58327,371.46259 268.5587,377.36989 269.08925,381.37524 L 265.54658,449.96697 C 266.07714,453.97233 262.8204,459.2317 258.81505,459.76226 L 184.22776,489.05954 C 180.22241,489.5901 177.0301,486.7927 176.49955,482.78735 L 177.00911,413.95748 C 176.47855,409.95212 175.68814,403.03941 188.19144,399.29342 z "
       id="rect1362"
       sodipodi:nodetypes="ccccccccc" />
    <path
       style="opacity:0.9;fill:#ffffff;fill-opacity:1;fill-rule:evenodd;stroke:none;stroke-width:1.25000143;stroke-linecap:round;stroke-linejoin:round;stroke-miterlimit:4;stroke-dashoffset:0;stroke-opacity:1"
       d="M 299.34246,362.28284 L 357.93865,341.65243 C 361.944,341.12187 369.44018,339.34436 366.98498,347.71352 L 360.0068,407.59673 C 359.84833,415.96588 357.73606,420.53018 348.21852,425.42455 L 285.34146,449.34691 C 281.3361,449.87747 280.89988,447.03869 280.36932,443.03333 L 284.75802,380.25103 C 283.76812,368.43675 295.3371,362.8134 299.34246,362.28284 z "
       id="rect1364"
       sodipodi:nodetypes="ccccccccc" />
    <path
       style="opacity:0.9;fill:#ff0000;fill-opacity:1;fill-rule:evenodd;stroke:none;stroke-width:1.25000143;stroke-linecap:round;stroke-linejoin:round;stroke-miterlimit:4;stroke-dashoffset:0;stroke-opacity:1"
       d="M 388.43963,331.10562 L 440.39875,312.53815 C 444.4041,312.00759 449.99871,313.5097 450.52927,317.51506 L 440.36227,380.31082 C 440.89283,384.31618 433.56188,391.85372 429.55653,392.38428 L 377.57382,414.17653 C 361.95796,415.31768 370.57793,403.49028 370.04737,399.48492 L 376.98624,347.71261 C 376.45569,343.70726 380.54838,331.63617 388.43963,331.10562 z "
       id="rect1366"
       sodipodi:nodetypes="ccccccccc" />
    <path
       style="opacity:0.9;fill:#ff0000;fill-opacity:1;fill-rule:evenodd;stroke:none;stroke-width:1.25000036;stroke-linecap:round;stroke-linejoin:round;stroke-miterlimit:4;stroke-dashoffset:0;stroke-opacity:1"
       d="M 59.265496,200.76683 L 86.220821,223.88586 C 95.674635,228.85154 99.984485,240.49205 98.250485,248.81184 L 100.97578,316.13433 C 102.42504,326.57055 98.355145,322.93682 94.349795,323.46738 L 70.424971,297.81002 C 58.151352,288.69427 56.650289,274.12088 56.119732,270.11552 L 53.452647,209.41375 C 52.692421,199.89622 55.260136,198.08196 59.265496,200.76683 z "
       id="rect1368"
       sodipodi:nodetypes="ccccccccc" />
    <path
       style="opacity:0.9;fill:#ffffff;fill-opacity:1;fill-rule:evenodd;stroke:none;stroke-width:1.25000107;stroke-linecap:round;stroke-linejoin:round;stroke-miterlimit:4;stroke-dashoffset:0;stroke-opacity:1"
       d="M 60.472929,92.409369 L 90.365235,112.89037 C 99.952535,116.66728 95.665315,119.60237 97.095595,126.24982 L 99.906265,206.01621 C 100.08229,212.18599 99.407585,219.63416 91.299535,214.15298 L 65.310046,190.65593 C 53.532906,183.90045 54.141798,179.02461 53.773149,173.56204 L 49.923261,94.256968 C 49.392697,81.464138 56.467568,90.715606 60.472929,92.409369 z "
       id="rect1370"
       sodipodi:nodetypes="ccccccccc" />
    <path
       style="opacity:0.9;fill:#00fe00;fill-opacity:1;fill-rule:evenodd;stroke:none;stroke-width:1.25000143;stroke-linecap:round;stroke-linejoin:round;stroke-miterlimit:4;stroke-dashoffset:0;stroke-opacity:1"
       d="M 113.03273,122.96642 L 158.81096,155.15503 C 162.59858,158.39204 163.01771,160.8132 163.28985,169.08863 L 163.20203,255.50307 C 162.26137,270.55129 157.95875,262.86558 154.892,263.05829 L 116.1592,230.05961 C 107.10173,222.64245 107.57764,216.926 106.73729,210.29719 L 104.85923,132.91643 C 103.37122,120.94454 109.15643,117.65412 113.03273,122.96642 z "
       id="rect1372"
       sodipodi:nodetypes="ccccccccc" />
    <path
       style="opacity:0.9;fill:#ff0000;fill-opacity:1;fill-rule:evenodd;stroke:none;stroke-width:1.25000143;stroke-linecap:round;stroke-linejoin:round;stroke-miterlimit:4;stroke-dashoffset:0;stroke-opacity:1"
       d="M 20.523125,162.37789 L 38.949895,178.08742 C 46.140895,180.11306 50.002225,193.95481 48.745185,200.20712 L 52.885575,263.17469 C 52.956785,273.84059 50.848405,268.99431 46.843045,269.52487 L 26.375615,246.79103 C 18.695475,242.95779 16.651525,233.72951 16.120965,229.72416 L 11.494845,167.57971 C 10.964285,163.57434 10.775935,150.50606 20.523125,162.37789 z "
       id="rect1374"
       sodipodi:nodetypes="ccccccccc" />
    <path
       style="opacity:0.9;fill:#ff0000;fill-opacity:1;fill-rule:evenodd;stroke:none;stroke-width:1.25000143;stroke-linecap:round;stroke-linejoin:round;stroke-miterlimit:4;stroke-dashoffset:0;stroke-opacity:1"
       d="M 117.08656,251.31175 L 150.38515,281.03829 C 157.62875,284.71744 158.53463,293.64392 159.06519,297.64928 L 159.34162,369.4043 C 160.03409,390.41041 153.51271,381.91868 149.99309,379.85864 L 115.09559,341.43267 C 108.66156,336.45822 106.32878,332.91525 106.12204,320.32857 L 104.8573,261.95833 C 103.03128,251.15128 104.88799,236.65107 117.08656,251.31175 z "
       id="rect1376"
       sodipodi:nodetypes="ccccccccc" />
    <path
       style="opacity:0.9;fill:#0000fe;fill-opacity:1;fill-rule:evenodd;stroke:none;stroke-width:1.25000143;stroke-linecap:round;stroke-linejoin:round;stroke-miterlimit:4;stroke-dashoffset:0;stroke-opacity:1"
       d="M 69.972655,305.55631 L 91.937295,327.85583 C 102.41913,332.50645 102.1621,352.05571 102.69265,356.06107 L 105.26457,406.31253 C 104.49982,427.15673 103.78806,419.22922 95.189215,412.63989 L 75.238855,388.44806 C 68.936755,382.0884 61.535485,372.77754 62.999555,361.67982 L 58.876605,308.76164 C 59.641345,287.26979 65.967295,306.08687 69.972655,305.55631 z "
       id="rect1378"
       sodipodi:nodetypes="ccccccccc" />
    <path
       style="opacity:0.9;fill:#ffff00;fill-opacity:1;fill-rule:evenodd;stroke:none;stroke-width:1.25000143;stroke-linecap:round;stroke-linejoin:round;stroke-miterlimit:4;stroke-dashoffset:0;stroke-opacity:1"
       d="M 25.698745,260.88593 L 42.784675,278.7084 C 56.908005,286.36857 52.850725,301.69299 53.381285,305.69834 L 56.999545,357.11826 C 57.530105,361.12362 53.769085,366.70251 47.354685,356.15149 L 30.471045,335.27162 C 20.202185,326.16602 22.332225,315.17787 21.801665,311.17252 L 18.944735,264.73724 C 18.414175,260.73188 16.875315,245.99863 25.698745,260.88593 z "
       id="rect1380"
       sodipodi:nodetypes="ccccccccc" />
    <path
       style="opacity:0.9;fill:#ffff00;fill-opacity:1;fill-rule:evenodd;stroke:none;stroke-width:1.25000179;stroke-linecap:round;stroke-linejoin:round;stroke-miterlimit:4;stroke-dashoffset:0;stroke-opacity:1"
       d="M 120.78201,360.08294 L 156.27813,396.90461 C 159.63584,399.7742 164.7447,402.09017 164.4657,417.42937 L 165.17527,477.16168 C 165.05818,490.88177 161.28787,486.59473 157.1206,484.85852 L 122.43547,443.98474 C 111.4679,434.47675 114.60722,426.64144 114.07666,422.63608 L 112.07181,377.17353 C 109.51312,354.59964 114.60001,349.91058 120.78201,360.08294 z "
       id="rect1382"
       sodipodi:nodetypes="ccccccccc" />
    <path
       style="opacity:0.9;fill:#ffff00;fill-opacity:1;fill-rule:evenodd;stroke:none;stroke-width:1.25000215;stroke-linecap:round;stroke-linejoin:round;stroke-miterlimit:4;stroke-dashoffset:0;stroke-opacity:1"
       d="M 67.927185,69.976985 L 142.39436,57.407625 C 146.39971,56.877065 166.86663,60.822845 167.39718,64.828195 L 199.26455,82.983775 C 199.79511,86.989135 185.68072,89.046975 181.67537,89.577535 L 118.92619,102.31934 C 114.92083,102.8499 100.00777,102.73911 99.477205,98.733755 L 63.140755,75.926375 C 62.610195,71.921015 63.921825,70.507545 67.927185,69.976985 z "
       id="rect1384"
       sodipodi:nodetypes="ccccccccc" />
    <path
       style="opacity:0.9;fill:#ffffff;fill-opacity:1;fill-rule:evenodd;stroke:none;stroke-width:1.25000107;stroke-linecap:round;stroke-linejoin:round;stroke-miterlimit:4;stroke-dashoffset:0;stroke-opacity:1"
       d="M 31.088385,42.886405 L 84.657955,35.619535 C 94.849685,34.820005 102.84803,33.837525 108.72167,37.842875 L 129.48145,47.546825 C 135.12249,53.434995 130.29428,55.681165 126.28893,56.211725 L 60.288525,67.430615 C 52.786525,69.037065 52.309045,67.488045 44.785195,64.558575 L 28.062765,54.845115 C 19.034285,48.772695 20.784775,44.411915 31.088385,42.886405 z "
       id="rect1386"
       sodipodi:nodetypes="ccccccccc" />
    <path
       style="opacity:0.9;fill:#ff0000;fill-opacity:1;fill-rule:evenodd;stroke:none;stroke-width:1.25000179;stroke-linecap:round;stroke-linejoin:round;stroke-miterlimit:4;stroke-dashoffset:0;stroke-opacity:1"
       d="M 129.39993,30.057075 L 183.17676,21.324605 C 197.74712,19.415995 202.43669,22.438765 204.58109,22.678505 L 221.93378,29.844775 C 239.91956,35.917205 229.89724,38.244235 225.89187,38.774795 L 174.82269,47.401735 C 167.28498,53.230815 153.1579,50.212905 147.24789,44.593715 L 132.71702,37.930265 C 126.90396,34.613925 125.39458,30.587625 129.39993,30.057075 z "
       id="rect1388"
       sodipodi:nodetypes="ccccccccc" />
    <path
       style="opacity:0.9;fill:#00ffff;fill-opacity:1;fill-rule:evenodd;stroke:none;stroke-width:1.25000179;stroke-linecap:round;stroke-linejoin:round;stroke-miterlimit:4;stroke-dashoffset:0;stroke-opacity:1"
       d="M 230.40916,15.517013 L 268.74251,9.9299331 C 272.74787,9.3993731 287.26574,5.3861131 294.37472,11.265433 L 317.33164,21.281805 C 323.28225,25.287175 301.50634,27.791365 297.50097,28.321925 L 269.84755,32.494915 C 257.49897,34.476905 253.57716,35.091445 243.00834,29.898535 L 225.04244,23.637195 C 216.87759,21.287565 212.16402,15.588213 230.40916,15.517013 z "
       id="rect1390"
       sodipodi:nodetypes="ccccccccc" />
    <path
       style="opacity:0.9;fill:#00ffff;fill-opacity:1;fill-rule:evenodd;stroke:none;stroke-width:1.25000143;stroke-linecap:round;stroke-linejoin:round;stroke-miterlimit:4;stroke-dashoffset:0;stroke-opacity:1"
       d="M 177.57743,52.888709 L 241.65115,41.973692 C 245.65651,41.443135 262.44437,43.009805 262.97493,47.01516 L 292.19926,61.35196 C 292.72981,65.357325 291.58525,70.821159 287.57989,71.351716 L 226.25444,83.589477 C 222.24907,84.120035 207.0004,83.899756 206.46984,79.894392 L 177.34881,63.486733 C 176.81826,59.481379 173.57206,53.419267 177.57743,52.888709 z "
       id="rect1392"
       sodipodi:nodetypes="ccccccccc" />
    <path
       style="opacity:0.9;fill:#00fe00;fill-opacity:1;fill-rule:evenodd;stroke:none;stroke-width:1.25000143;stroke-linecap:round;stroke-linejoin:round;stroke-miterlimit:4;stroke-dashoffset:0;stroke-opacity:1"
       d="M 283.85413,36.372508 L 327.10772,29.143183 C 331.11307,28.612626 350.29482,28.233554 353.35179,34.76532 L 387.29117,48.388464 C 393.79325,52.16415 377.27716,54.185453 383.8368,52.64895 L 334.65139,61.676533 C 330.64603,62.20709 307.22903,64.395846 306.69847,60.390482 L 270.63063,43.574184 C 257.57307,38.123405 279.84877,36.903066 283.85413,36.372508 z "
       id="rect1394"
       sodipodi:nodetypes="ccccccccc" />
    <path
       style="opacity:0.9;fill:#00fe00;fill-opacity:1;fill-rule:evenodd;stroke:none;stroke-width:1.25000179;stroke-linecap:round;stroke-linejoin:round;stroke-miterlimit:4;stroke-dashoffset:0;stroke-opacity:1"
       d="M 15.867035,64.028425 L 39.703315,81.406325 C 45.975445,83.790185 43.636355,92.416415 44.166905,96.421775 L 47.470655,161.98504 C 48.648845,172.79069 46.661015,172.39455 42.655645,172.92511 L 17.041205,151.98299 C 11.416745,147.00855 11.489045,139.6776 10.958485,135.67225 L 7.0042447,73.349375 C 6.2346547,68.945645 9.7889347,61.104395 15.867035,64.028425 z "
       id="rect1396"
       sodipodi:nodetypes="ccccccccc" />
    <path
       style="opacity:0.9;fill:#00ffff;fill-opacity:1;fill-rule:evenodd;stroke:none;stroke-width:1.25000143;stroke-linecap:round;stroke-linejoin:round;stroke-miterlimit:4;stroke-dashoffset:0;stroke-opacity:1"
       d="M 126.14901,107.64376 L 207.27675,92.39703 C 211.28212,91.866472 225.80628,94.663867 226.33684,98.669231 L 272.66293,123.48375 C 273.19349,127.4891 270.39609,131.14076 266.39073,131.67132 L 188.22822,147.90646 C 184.22286,151.2747 162.28562,147.52011 161.75507,142.62267 L 119.87681,115.83134 C 119.34625,111.82597 122.14366,108.17432 126.14901,107.64376 z "
       id="rect1398"
       sodipodi:nodetypes="ccccccccc" />
    <path
       style="opacity:0.9;fill:#ff0000;fill-opacity:1;fill-rule:evenodd;stroke:none;stroke-width:1.25000215;stroke-linecap:round;stroke-linejoin:round;stroke-miterlimit:4;stroke-dashoffset:0;stroke-opacity:1"
       d="M 243.34982,87.468529 L 310.80539,74.692824 C 314.81076,74.162265 340.36791,78.892511 340.89847,82.897876 L 380.97853,103.81554 C 381.50909,107.82089 370.98033,111.47255 366.97497,112.00311 L 305.31791,125.4231 C 301.31255,125.95365 284.13102,126.37765 283.60046,122.37229 L 237.07761,95.656115 C 236.54705,91.65075 239.34446,87.999087 243.34982,87.468529 z "
       id="rect1400"
       sodipodi:nodetypes="ccccccccc" />
    <path
       style="opacity:0.9;fill:#ffffff;fill-opacity:1;fill-rule:evenodd;stroke:none;stroke-width:1.25000215;stroke-linecap:round;stroke-linejoin:round;stroke-miterlimit:4;stroke-dashoffset:0;stroke-opacity:1"
       d="M 353.88528,64.23489 L 388.95242,58.47344 C 387.91932,55.143737 406.16893,57.495133 424.46438,65.641704 L 457.22163,78.794123 C 465.48354,83.443764 468.72037,87.459869 464.715,87.990427 L 421.08656,97.550348 C 414.66128,96.821693 404.0187,99.86316 395.80595,97.227917 L 348.16823,76.310252 C 334.74088,69.88464 344.22145,66.53581 353.88528,64.23489 z "
       id="rect1402"
       sodipodi:nodetypes="ccccccccc" />
  </g>
</svg>
